#tb 0: 1/48000
#media_type 0: audio
#codec_id 0: pcm_s16le
#sample_rate 0: 48000
#channel_layout_name 0: mono
0,          0,          0,     5120,    10240, 0xa687046e
0,       5120,       5120,     5120,    10240, 0xa75bd341
0,      10240,      10240,     5120,    10240, 0x6a59cebe
0,      15360,      15360,     5120,    10240, 0x04771262
0,      20480,      20480,     5120,    10240, 0x3cefe573
0,      25600,      25600,     5120,    10240, 0xba329e6b
0,      30720,      30720,     5120,    10240, 0x6fabfff0
0,      35840,      35840,     3591,     7182, 0x3fb1ae86
